<svg width="11" height="11" viewBox="0 0 11 11" fill="none" xmlns="http://www.w3.org/2000/svg">
<g clip-path="url(#clip0_101_1222)">
<path d="M9.37304 10.74C9.18387 10.7408 8.99944 10.7025 8.81973 10.6251C8.64003 10.5477 8.50763 10.4734 8.42253 10.4021C8.33744 10.3309 8.23594 10.2369 8.11805 10.1202C7.70228 10.5385 7.07691 10.7494 6.24195 10.7528L1.54532 10.7721C1.46052 10.7724 1.38701 10.7418 1.32479 10.6802C1.26256 10.6186 1.23128 10.5455 1.23093 10.4609C1.23059 10.3762 1.26127 10.3029 1.32299 10.2408C1.3847 10.1786 1.45796 10.1474 1.54276 10.1471C1.62104 10.1468 1.71369 10.0731 1.82072 9.92621C1.92776 9.77929 2.02974 9.59332 2.12666 9.36831C2.22359 9.14331 2.30566 8.87441 2.37287 8.56164C2.44009 8.24886 2.47308 7.94273 2.47186 7.64325C2.47116 7.47398 2.44938 7.33084 2.4065 7.21383C2.36362 7.09682 2.31102 6.99612 2.2487 6.91174C2.18639 6.82736 2.12404 6.73484 2.06166 6.63418C1.99927 6.53353 1.94648 6.384 1.90326 6.18561C1.86005 5.98722 1.83786 5.74479 1.83668 5.45834C1.83599 5.28907 1.85663 5.15063 1.89859 5.04304C1.94055 4.93544 1.9924 4.85385 2.05414 4.79826C2.11588 4.74267 2.17762 4.68545 2.23935 4.6266C2.30108 4.56776 2.3529 4.47802 2.39481 4.35741C2.43671 4.23679 2.45728 4.08209 2.45651 3.89329C2.4548 3.47662 2.24521 3.26915 1.82773 3.27085C1.53419 3.27206 1.25161 3.16091 0.97998 2.93741C0.708352 2.71391 0.572178 2.51427 0.571459 2.33849C0.570846 2.18875 0.64039 2.04686 0.78009 1.91283C0.919791 1.77879 1.05813 1.71149 1.19512 1.71093C1.30601 1.71048 1.40862 1.6775 1.50294 1.61201C1.59725 1.54652 1.68663 1.46803 1.77105 1.37654C1.85548 1.28505 1.94806 1.19352 2.0488 1.10196C2.14953 1.0104 2.2862 0.931718 2.45879 0.865907C2.63139 0.800096 2.8351 0.76671 3.06994 0.765749C3.37652 0.764494 3.62618 0.79928 3.8189 0.870106C4.01163 0.940932 4.15551 1.03312 4.25056 1.14666C4.34562 1.26021 4.42292 1.4194 4.48246 1.62423C4.54201 1.82907 4.58361 2.03235 4.60727 2.23408C4.63093 2.43581 4.67275 2.6928 4.73273 3.00506C4.79272 3.31731 4.86894 3.60997 4.96138 3.88303C5.08684 4.25362 5.38068 4.72605 5.84292 5.30034C6.30516 5.87462 6.64094 6.23295 6.85026 6.37532C7.68749 6.92529 8.10838 7.7569 8.11293 8.87018C8.11424 9.18918 8.30133 9.47651 8.6742 9.73214C9.04707 9.98778 9.4879 10.1146 9.9967 10.1125C10.1663 10.1118 10.3651 10.0784 10.5932 10.0124C10.5354 10.2405 10.3926 10.4185 10.1648 10.5464C9.93703 10.6742 9.67311 10.7388 9.37304 10.74ZM3.72429 7.63813C3.70515 7.74237 3.67961 7.87757 3.64767 8.04372C3.61574 8.20987 3.54665 8.46243 3.4404 8.80141C3.33416 9.14039 3.2226 9.37848 3.10575 9.51568L4.35818 9.51055C4.35704 9.2306 4.32343 8.98823 4.25736 8.78342C4.19129 8.57861 4.11893 8.43079 4.04028 8.33997C3.96163 8.24914 3.88944 8.14364 3.82372 8.02347C3.75799 7.90329 3.72485 7.77485 3.72429 7.63813Z" fill="#CB82F8"/>
</g>
<defs>
<clipPath id="clip0_101_1222">
<rect width="10" height="10" fill="white" transform="translate(0.561035 0.776001) rotate(-0.234509)"/>
</clipPath>
</defs>
</svg>
