<svg width="10" height="11" viewBox="0 0 10 11" fill="none" xmlns="http://www.w3.org/2000/svg">
<g clip-path="url(#clip0_101_1220)">
<path d="M8.95745 5.81941C8.9583 6.02774 9.06404 6.44397 9.27467 7.06812C9.4853 7.69226 9.59104 8.1085 9.59189 8.31683C9.59362 8.74 9.53187 9.14065 9.40662 9.51877C9.28137 9.89689 9.09733 10.2085 8.8545 10.4537C8.61167 10.6988 8.3407 10.822 8.0416 10.8232L3.67214 10.8411C3.58761 10.8414 3.51433 10.8108 3.45231 10.7492C3.39028 10.6876 3.3591 10.6145 3.35875 10.5299C3.35841 10.4452 3.38899 10.3719 3.45051 10.3098C3.51203 10.2477 3.58505 10.2164 3.66958 10.2161C3.76061 10.2157 3.83526 10.1861 3.89354 10.1273C3.95182 10.0684 3.98078 9.99346 3.9804 9.90231C3.97971 9.73304 3.91388 9.53637 3.78292 9.31229C3.65196 9.08822 3.49496 8.85774 3.31193 8.62086C3.12889 8.38397 2.94583 8.13895 2.76272 7.88579C2.57962 7.63263 2.42243 7.35333 2.29113 7.04787C2.15983 6.74242 2.0936 6.44646 2.09243 6.16001C2.09043 5.67173 2.28384 5.26729 2.67267 4.94668C2.59368 4.71263 2.39814 4.59624 2.08603 4.59752C1.89747 4.59829 1.70051 4.53237 1.49514 4.39974C1.28978 4.26712 1.12827 4.1278 1.01063 3.9818C0.892996 3.83579 0.834043 3.73024 0.833777 3.66514C0.833431 3.5805 0.864016 3.50713 0.925534 3.44503C0.987051 3.38293 1.06007 3.35171 1.1446 3.35136C1.19662 3.35115 1.2517 3.30535 1.30985 3.21397C1.368 3.12258 1.43418 3.00838 1.50839 2.87135C1.58261 2.73433 1.66819 2.59563 1.76515 2.45526C1.86211 2.31489 1.99163 2.18415 2.15369 2.06304C2.31575 1.94194 2.49747 1.85818 2.69885 1.81179L2.69489 0.844997C2.84444 0.844384 3.02048 0.959225 3.22299 1.18952C3.4255 1.41981 3.55653 1.65853 3.61606 1.90569C3.9287 2.03462 4.16695 2.25988 4.33082 2.58148C4.4947 2.90308 4.57743 3.25919 4.57903 3.64981C4.57981 3.83861 4.62118 4.01748 4.70315 4.18641C4.78512 4.35535 4.90115 4.50624 5.05125 4.63909C5.20134 4.77195 5.32367 4.87236 5.41823 4.94033C5.51279 5.0083 5.63177 5.08431 5.77517 5.16836C5.80126 5.18779 5.82082 5.20073 5.83385 5.20719C6.21185 5.42048 6.52481 5.62754 6.77272 5.82835C7.22289 6.1976 7.59704 6.66157 7.89518 7.22025C8.19332 7.77893 8.34318 8.25033 8.34475 8.63444C8.34486 8.66048 8.34823 8.68976 8.35487 8.72229C8.3615 8.75481 8.39095 8.80026 8.44321 8.85865C8.49546 8.91703 8.56711 8.94603 8.65814 8.94566C8.74917 8.94528 8.82374 8.89452 8.88184 8.79337C8.93995 8.69222 8.96856 8.53423 8.96768 8.31938C8.96675 8.09152 8.92355 7.86383 8.83809 7.63632C8.75263 7.4088 8.64771 7.19276 8.52333 6.98818C8.39895 6.78361 8.27454 6.5709 8.15009 6.35006C8.02564 6.12921 7.92052 5.86434 7.83473 5.55544C7.74893 5.24655 7.70533 4.91958 7.70392 4.57453C7.70264 4.26203 7.83151 3.97504 8.09053 3.71356C8.34955 3.45208 8.63511 3.3207 8.94722 3.31943C9.12278 3.31871 9.27095 3.37832 9.39173 3.49827C9.51252 3.61822 9.57327 3.76609 9.57399 3.94187C9.57441 4.04603 9.55529 4.13889 9.51661 4.22042C9.47793 4.30196 9.42784 4.37704 9.36635 4.44565C9.30486 4.51426 9.27089 4.55509 9.26444 4.56814C9.05778 4.91404 8.95545 5.33113 8.95745 5.81941Z" fill="#CB82F8"/>
</g>
<defs>
<clipPath id="clip0_101_1220">
<rect width="8.739" height="10" fill="white" transform="translate(0.822266 0.852661) rotate(-0.234509)"/>
</clipPath>
</defs>
</svg>
