<svg width="22" height="21" viewBox="0 0 22 21" fill="none" xmlns="http://www.w3.org/2000/svg">
<path d="M8.99998 4.17199C8.99998 2.78199 7.42298 1.67899 5.49998 1.99999C2.67698 2.46999 1.38698 8.00599 1.49998 8.99999C1.57998 9.70299 3.22498 10.722 5.15598 9.99999C6.41698 9.52799 7.11598 8.54999 7.49998 7.49999M13.267 4.17199C13.267 2.78199 14.844 1.67899 16.767 1.99999C19.59 2.46999 20.88 8.00599 20.767 8.99999C20.687 9.70299 19.042 10.722 17.111 9.99999C15.85 9.52799 15.256 8.54999 14.872 7.49999M6.99998 13V13.5M15 13V13.5M10.25 15.25H11.75L11 16L10.25 15.25Z" stroke="#BA68C8" stroke-width="2" stroke-linecap="round" stroke-linejoin="round"/>
<path d="M3.42001 10.247C3.14014 11.3277 2.999 12.4396 3.00001 13.556C3.00001 17.728 6.58201 20 11 20C15.418 20 19 17.728 19 13.556C19 12.495 18.838 11.356 18.507 10.247M9.26401 4.16497C9.83578 4.05263 10.4173 3.99736 11 3.99997C11.78 3.99997 12.5 4.10797 13.161 4.30597" stroke="#BA68C8" stroke-width="2" stroke-linecap="round" stroke-linejoin="round"/>
</svg>
