<svg width="27" height="19" viewBox="0 0 27 19" fill="none" xmlns="http://www.w3.org/2000/svg">
<path d="M22.0792 7.54829C23.4217 8.97179 23.1426 10.7127 23.1426 12.25C23.1426 16.4815 16.7783 17.6666 13.5001 17.6666C10.2219 17.6666 3.85757 16.4815 3.85757 12.25C3.85757 10.7138 3.57845 8.97179 4.92091 7.54829M22.0792 7.54829C21.8436 7.29913 21.5597 7.06079 21.2141 6.83329M22.0792 7.54829C22.9251 7.98488 23.1414 6.35121 23.1426 5.81713V3.78696C23.1426 2.02654 21.7929 1.41663 20.6353 1.41663C19.4789 1.41663 17.1637 3.10988 16.3928 3.10988C15.4672 3.10988 15.2884 2.93979 13.5001 2.93979C11.7117 2.93979 11.5329 3.10988 10.6073 3.10988C9.83641 3.10988 7.52124 1.41663 6.36487 1.41663C5.20728 1.41663 3.85757 2.02654 3.85757 3.78696V5.81821C3.85999 6.35121 4.07507 7.98488 4.92091 7.54829M4.92091 7.54829C5.15653 7.29913 5.44049 7.06079 5.78607 6.83329" stroke="#BA68C8" stroke-width="1.5" stroke-linecap="round"/>
<path d="M14.4982 13.3333C14.4982 13.5207 14.0619 13.6724 13.523 13.6724C12.9853 13.6724 12.5491 13.5207 12.5491 13.3333C12.5491 13.1459 12.9853 12.9942 13.523 12.9942C14.0619 12.9942 14.4982 13.1459 14.4982 13.3333ZM17.7292 10.7268C17.7292 11.1937 17.467 11.5729 17.1444 11.5729C16.8218 11.5729 16.5596 11.1937 16.5596 10.7268C16.5596 10.2588 16.8218 9.88074 17.1444 9.88074C17.467 9.88074 17.7292 10.261 17.7292 10.7268ZM10.4792 10.7268C10.4792 11.1937 10.217 11.5729 9.8944 11.5729C9.57178 11.5729 9.30957 11.1937 9.30957 10.7268C9.30957 10.2588 9.57178 9.88074 9.8944 9.88074C10.217 9.88074 10.4792 10.261 10.4792 10.7268Z" stroke="#BA68C8" stroke-width="1.5"/>
<path d="M25.5832 12.758C24.9995 12.419 22.4657 11.5729 21.4905 11.5729M23.6341 15.4664C23.0493 15.1273 21.6851 14.2812 20.71 14.2812M1.4165 12.758C2.00134 12.419 4.534 11.5729 5.50913 11.5729M3.36555 15.4664C3.95038 15.1273 5.31459 14.2812 6.28971 14.2812" stroke="#BA68C8" stroke-width="1.5" stroke-linecap="round"/>
</svg>
