<svg width="15" height="15" viewBox="0 0 15 15" fill="none" xmlns="http://www.w3.org/2000/svg">
<g clip-path="url(#clip0_101_1214)">
<path d="M12.995 6.27436C13.0117 10.3577 7.77611 13.8791 7.77611 13.8791C7.77611 13.8791 2.51183 10.4006 2.49512 6.31734C2.48942 4.92496 3.03707 3.58735 4.0176 2.59877C4.99813 1.61018 6.33121 1.05159 7.72359 1.04589C9.11596 1.0402 10.4536 1.58785 11.4422 2.56838C12.4307 3.5489 12.9893 4.88199 12.995 6.27436Z" stroke="#ACA3A3" stroke-linecap="round" stroke-linejoin="round"/>
<path d="M7.75235 8.04579C8.71884 8.04183 9.49913 7.25513 9.49517 6.28864C9.49121 5.32215 8.70451 4.54186 7.73802 4.54582C6.77153 4.54977 5.99124 5.33647 5.9952 6.30296C5.99916 7.26946 6.78586 8.04974 7.75235 8.04579Z" stroke="#ACA3A3" stroke-linecap="round" stroke-linejoin="round"/>
</g>
<defs>
<clipPath id="clip0_101_1214">
<rect width="14" height="14" fill="white" transform="translate(0.721313 0.491333) rotate(-0.234509)"/>
</clipPath>
</defs>
</svg>
