<svg width="25" height="25" viewBox="0 0 25 25" fill="none" xmlns="http://www.w3.org/2000/svg">
<g clip-path="url(#clip0_1_91)">
<path d="M20.8586 4.62465C20.3458 4.11575 19.7377 3.71288 19.0691 3.43905C18.4005 3.16522 17.6846 3.0258 16.9621 3.02876C16.2396 3.03172 15.5248 3.17699 14.8585 3.45628C14.1921 3.73558 13.5874 4.14341 13.0787 4.65649L12.0231 5.72082L10.9587 4.66517C9.92282 3.63771 8.52118 3.06384 7.06216 3.06982C5.60314 3.07579 4.20625 3.66111 3.17879 4.69701C2.15133 5.73292 1.57746 7.13456 1.58343 8.59358C1.5894 10.0526 2.17472 11.4495 3.21063 12.4769L4.27496 13.5326L12.0867 21.2807L19.8348 13.4689L20.8905 12.4046C21.3994 11.8917 21.8023 11.2837 22.0761 10.6151C22.3499 9.94649 22.4893 9.2305 22.4864 8.50802C22.4834 7.78554 22.3381 7.07072 22.0588 6.4044C21.7796 5.73808 21.3717 5.13331 20.8586 4.62465V4.62465Z" stroke="#BFBFBF" stroke-width="2" stroke-linecap="round" stroke-linejoin="round"/>
</g>
<defs>
<clipPath id="clip0_1_91">
<rect width="24" height="24" fill="white" transform="translate(0 0.0999756) rotate(-0.234509)"/>
</clipPath>
</defs>
</svg>
