<svg width="38" height="37" viewBox="0 0 38 37" fill="none" xmlns="http://www.w3.org/2000/svg">
<g clip-path="url(#clip0_1_98)" filter="url(#filter0_d_1_98)">
<path d="M18.1075 7.80856C19.6567 8.85153 21.0301 7.11481 20.8122 5.42262C20.7348 4.83903 20.5145 4.30465 20.1442 3.89684C19.5395 3.22653 18.2786 3.15622 17.8192 3.86403C17.0739 5.00309 16.7692 6.90622 18.1075 7.80856ZM13.8465 6.41872C15.4989 7.27184 16.7153 5.36872 16.3379 3.69762C16.209 3.12575 15.9372 2.61481 15.5293 2.25153C14.8614 1.65153 13.5958 1.73356 13.1973 2.49762C12.5528 3.72575 12.4262 5.67575 13.8465 6.41872ZM6.57622 6.16559C5.84028 5.70153 4.67544 6.25465 4.38247 7.10778C4.20434 7.62575 4.21606 8.20231 4.38716 8.76715C4.89575 10.4054 6.92778 11.4531 7.96138 9.89215C8.852 8.55622 7.76216 6.92028 6.57622 6.16559ZM11.2895 6.99762C12.2645 5.7859 11.3504 4.04215 10.2676 3.15153C9.59497 2.60309 8.42075 3.00153 8.06684 3.80778C7.85122 4.29293 7.81841 4.86715 7.93559 5.44372C8.28481 7.11715 10.1622 8.40622 11.2895 6.99762ZM18.3254 10.9914C17.8051 9.31559 15.9208 8.58903 14.6036 8.42262C12.6395 8.17653 10.5043 9.22184 9.53638 11.2843C9.14731 12.114 8.59653 13.5765 9.11919 14.5117C9.84106 15.7937 11.6551 14.9734 12.527 14.5093C13.5606 13.9492 14.3833 13.4547 15.5715 13.6445L15.6981 13.6656C17.2004 13.8601 19.0684 13.3726 18.3254 10.9914ZM19.9895 20.5047C19.2114 20.1742 18.2083 20.9382 18.0793 21.8312C18.002 22.3726 18.1168 22.9422 18.3793 23.4672C19.1411 24.9929 21.2504 25.6679 21.9536 23.9359C22.5583 22.4406 21.2411 21.032 19.9895 20.5047ZM24.7098 20.4039C25.4739 18.9953 24.2809 17.4484 23.0598 16.7875C22.3051 16.3773 21.2083 17.0148 20.9856 17.8867C20.852 18.414 20.9129 18.9906 21.1262 19.5367C21.745 21.1328 23.8168 22.0351 24.7098 20.4039ZM33.8692 17.0664C33.6934 16.5015 33.384 16.0187 32.9481 15.6859C32.2286 15.1422 30.9536 15.3343 30.602 16.1312C30.0395 17.4179 30.0465 19.3843 31.5348 19.9961C33.2622 20.7132 34.3637 18.707 33.8692 17.0664ZM27.1543 19.4547C28.8747 19.9937 29.7137 17.875 29.0668 16.2906C28.8442 15.7468 28.495 15.2875 28.045 15.0039C27.302 14.5351 26.1043 14.8586 25.8536 15.6906C25.4551 17.0359 25.6684 18.9929 27.1543 19.4547ZM31.0004 22.0304C29.0481 20.8609 26.6903 21.189 25.1997 22.4875C24.1989 23.3617 23.0434 25.014 23.5473 26.6968C24.2622 29.0875 26.0833 28.4476 27.2176 27.4468L27.3137 27.3578C28.1926 26.5398 29.1512 26.4882 30.3208 26.3781C31.3028 26.2773 33.2692 25.9422 33.1473 24.4773C33.0629 23.4062 31.7856 22.5015 31.0004 22.0304Z" fill="#C4C4C4"/>
</g>
<defs>
<filter id="filter0_d_1_98" x="0.119995" y="0.0999756" width="38" height="38" filterUnits="userSpaceOnUse" color-interpolation-filters="sRGB">
<feFlood flood-opacity="0" result="BackgroundImageFix"/>
<feColorMatrix in="SourceAlpha" type="matrix" values="0 0 0 0 0 0 0 0 0 0 0 0 0 0 0 0 0 0 127 0" result="hardAlpha"/>
<feOffset dy="4"/>
<feGaussianBlur stdDeviation="2"/>
<feComposite in2="hardAlpha" operator="out"/>
<feColorMatrix type="matrix" values="0 0 0 0 0 0 0 0 0 0 0 0 0 0 0 0 0 0 0.25 0"/>
<feBlend mode="normal" in2="BackgroundImageFix" result="effect1_dropShadow_1_98"/>
<feBlend mode="normal" in="SourceGraphic" in2="effect1_dropShadow_1_98" result="shape"/>
</filter>
<clipPath id="clip0_1_98">
<rect width="30" height="30" fill="white" transform="translate(4.12 0.0999756)"/>
</clipPath>
</defs>
</svg>
