<svg width="25" height="25" viewBox="0 0 25 25" fill="none" xmlns="http://www.w3.org/2000/svg">
<path d="M20.1896 21.2528L20.1814 19.2528C20.1771 18.192 19.7515 17.1763 18.9983 16.4292C18.245 15.6822 17.2259 15.2649 16.1651 15.2692L8.16513 15.302C7.10427 15.3063 6.08859 15.7319 5.34152 16.4851C4.59445 17.2383 4.17719 18.2575 4.18153 19.3183L4.18972 21.3183" stroke="#BFBFBF" stroke-width="2" stroke-linecap="round" stroke-linejoin="round"/>
<path d="M12.1487 11.2856C14.3578 11.2766 16.1413 9.47841 16.1323 7.26929C16.1232 5.06017 14.3251 3.27665 12.1159 3.28569C9.90681 3.29473 8.1233 5.09291 8.13234 7.30203C8.14138 9.51115 9.93956 11.2947 12.1487 11.2856Z" stroke="#BFBFBF" stroke-width="2" stroke-linecap="round" stroke-linejoin="round"/>
</svg>
