<svg width="25" height="26" viewBox="0 0 25 26" fill="none" xmlns="http://www.w3.org/2000/svg">
<g clip-path="url(#clip0_101_1397)">
<path fill-rule="evenodd" clip-rule="evenodd" d="M21.1307 10.3119L20.4824 9.18676C19.9338 8.23476 18.7183 7.90634 17.765 8.45259C17.3112 8.7199 16.7698 8.79575 16.26 8.66339C15.7502 8.53103 15.314 8.20134 15.0476 7.74702C14.8762 7.45825 14.7841 7.12933 14.7806 6.79355C14.7961 6.2552 14.593 5.73351 14.2176 5.34733C13.8422 4.96115 13.3264 4.74336 12.7879 4.74359H11.4816C10.954 4.74358 10.4481 4.95383 10.0759 5.32782C9.7037 5.70182 9.49587 6.20871 9.4984 6.73634C9.48277 7.82572 8.59514 8.7006 7.50565 8.70049C7.16987 8.697 6.84096 8.6049 6.55218 8.43352C5.59888 7.88727 4.38331 8.21568 3.83479 9.1677L3.13876 10.3119C2.5909 11.2627 2.91485 12.4775 3.86339 13.0293C4.47997 13.3852 4.85979 14.0431 4.85979 14.755C4.85979 15.467 4.47997 16.1248 3.86339 16.4808C2.91606 17.0289 2.59176 18.2407 3.13876 19.1886L3.79665 20.3233C4.05365 20.7871 4.48486 21.1293 4.99485 21.2742C5.50484 21.4192 6.05156 21.3549 6.51405 21.0956C6.96868 20.8303 7.51047 20.7576 8.01896 20.8937C8.52746 21.0298 8.96052 21.3633 9.2219 21.8202C9.39329 22.1091 9.48538 22.4379 9.48887 22.7737C9.48887 23.8743 10.381 24.7665 11.4816 24.7665H12.7879C13.8848 24.7665 14.7754 23.8801 14.7806 22.7832C14.7781 22.254 14.9873 21.7456 15.3614 21.3714C15.7357 20.9971 16.2441 20.7879 16.7734 20.7905C17.1084 20.7995 17.4359 20.8911 17.7269 21.0575C18.6777 21.6053 19.8925 21.2814 20.4442 20.3328L21.1307 19.1886C21.3964 18.7326 21.4695 18.1894 21.3334 17.6793C21.1974 17.1693 20.8636 16.7345 20.4061 16.4712C19.9485 16.208 19.6149 15.7732 19.4788 15.2632C19.3428 14.7532 19.4157 14.21 19.6814 13.7539C19.8542 13.4522 20.1045 13.2021 20.4061 13.0293C21.3489 12.4778 21.6722 11.2701 21.1307 10.3214V10.3119Z" stroke="black" stroke-width="1.5" stroke-linecap="round" stroke-linejoin="round"/>
<path d="M12.1396 17.501C13.6561 17.501 14.8856 16.2715 14.8856 14.755C14.8856 13.2384 13.6561 12.009 12.1396 12.009C10.623 12.009 9.39355 13.2384 9.39355 14.755C9.39355 16.2715 10.623 17.501 12.1396 17.501Z" stroke="black" stroke-width="1.5" stroke-linecap="round" stroke-linejoin="round"/>
</g>
<defs>
<clipPath id="clip0_101_1397">
<rect width="25" height="25" fill="white" transform="translate(0 0.235352)"/>
</clipPath>
</defs>
</svg>
