<svg width="390" height="844" viewBox="0 0 390 844" fill="none" xmlns="http://www.w3.org/2000/svg">
<g clip-path="url(#clip0_101_173)">
<rect width="390" height="844" fill="#DEB2FB"/>
<g opacity="0.2" filter="url(#filter0_d_101_173)">
<circle cx="334.264" cy="344.264" r="191.5" transform="rotate(0.53024 334.264 344.264)" fill="url(#paint0_linear_101_173)" shape-rendering="crispEdges"/>
</g>
<g filter="url(#filter1_f_101_173)">
<circle cx="28.5" cy="319.5" r="13.5" fill="#F5F5F5"/>
</g>
<g filter="url(#filter2_f_101_173)">
<circle cx="75" cy="294" r="10" fill="#81ECFF"/>
</g>
<g filter="url(#filter3_f_101_173)">
<circle cx="38" cy="369" r="10" fill="#81ECFF"/>
</g>
<g opacity="0.2" filter="url(#filter4_d_101_173)">
<circle cx="113.264" cy="727.264" r="191.5" transform="rotate(0.53024 113.264 727.264)" fill="url(#paint1_linear_101_173)" shape-rendering="crispEdges"/>
</g>
<g opacity="0.2" filter="url(#filter5_d_101_173)">
<circle cx="140.264" cy="125.264" r="191.5" transform="rotate(0.53024 140.264 125.264)" fill="url(#paint2_linear_101_173)" shape-rendering="crispEdges"/>
</g>
<g filter="url(#filter6_d_101_173)">
<path d="M212.973 404.117C211.888 401.152 209.542 398.537 206.295 396.674C203.049 394.81 199.081 393.801 195 393.801C190.919 393.801 186.951 394.81 183.705 396.674C180.458 398.537 178.112 401.152 177.027 404.117L174.441 411.183C173.977 412.451 173.908 413.784 174.239 415.076C174.57 416.368 175.293 417.585 176.35 418.632C177.408 419.679 178.773 420.528 180.337 421.112C181.902 421.696 183.624 422 185.37 422H204.63C206.376 422 208.098 421.696 209.663 421.112C211.227 420.528 212.592 419.679 213.65 418.632C214.707 417.585 215.43 416.368 215.761 415.076C216.092 413.784 216.023 412.451 215.559 411.183L212.973 404.117ZM210.042 416.561C209.41 417.191 208.592 417.702 207.653 418.053C206.713 418.404 205.678 418.585 204.63 418.582H185.37C184.322 418.582 183.289 418.4 182.35 418.049C181.411 417.699 180.593 417.189 179.958 416.561C179.323 415.933 178.89 415.203 178.691 414.427C178.492 413.652 178.534 412.853 178.813 412.091L181.399 405.026C182.22 402.782 183.995 400.803 186.452 399.393C188.909 397.983 191.912 397.219 195 397.219C198.088 397.219 201.091 397.983 203.548 399.393C206.005 400.803 207.78 402.782 208.601 405.026L211.187 412.091C211.47 412.852 211.514 413.652 211.315 414.428C211.116 415.204 210.68 415.934 210.042 416.561ZM179.426 396.184C179.82 394.326 179.297 392.336 177.952 390.581C176.607 388.825 174.582 387.489 172.25 386.817C169.752 386.098 167.205 386.212 165.074 387.139C160.839 388.982 159.724 393.525 162.59 397.266C163.935 399.021 165.96 400.358 168.292 401.029C169.325 401.333 170.423 401.491 171.532 401.496C172.913 401.5 174.271 401.228 175.468 400.707C177.597 399.78 179.003 398.174 179.426 396.184ZM174.948 395.644C174.745 396.598 174.124 397.345 173.2 397.747C172.275 398.149 171.107 398.181 169.91 397.836C168.547 397.444 167.343 396.634 166.517 395.557C164.93 393.484 165.307 390.985 167.342 390.099C167.853 389.881 168.432 389.768 169.021 389.773C169.572 389.777 170.118 389.857 170.632 390.009C171.994 390.402 173.199 391.211 174.024 392.289C174.85 393.367 175.178 394.559 174.948 395.644ZM179.917 389.103C181.527 390.074 183.366 390.579 185.225 390.579C185.782 390.579 186.337 390.533 186.882 390.444C191.661 389.661 194.558 385.59 193.341 381.369C192.77 379.388 191.381 377.65 189.431 376.475C187.343 375.217 184.87 374.741 182.467 375.135C177.688 375.918 174.79 379.989 176.007 384.209C176.579 386.19 177.967 387.928 179.917 389.103ZM183.43 378.475C183.65 378.439 183.875 378.421 184.1 378.421C184.943 378.421 185.81 378.67 186.6 379.146C187.739 379.832 188.559 380.88 188.91 382.096C189.584 384.435 188.214 386.728 185.918 387.104C184.875 387.275 183.75 387.037 182.749 386.434C181.61 385.748 180.789 384.7 180.439 383.484C179.764 381.145 181.134 378.851 183.43 378.475ZM224.926 387.139C222.796 386.212 220.247 386.098 217.75 386.817C215.418 387.488 213.393 388.825 212.048 390.581C210.704 392.336 210.18 394.326 210.575 396.184C210.997 398.174 212.403 399.78 214.533 400.707C215.729 401.228 217.087 401.5 218.468 401.496C219.577 401.491 220.675 401.333 221.708 401.029C224.04 400.358 226.065 399.021 227.41 397.266C230.276 393.525 229.161 388.982 224.926 387.139ZM223.483 395.557C222.657 396.634 221.453 397.444 220.09 397.836C218.893 398.181 217.725 398.149 216.8 397.747C215.876 397.344 215.256 396.598 215.053 395.644C214.822 394.559 215.15 393.367 215.976 392.29C216.801 391.213 218.006 390.403 219.368 390.01C219.882 389.858 220.428 389.778 220.979 389.773C221.567 389.768 222.147 389.881 222.658 390.1C224.693 390.985 225.071 393.484 223.483 395.557ZM203.118 390.444C203.662 390.533 204.218 390.579 204.775 390.579C206.634 390.579 208.473 390.074 210.083 389.103C212.033 387.928 213.421 386.19 213.993 384.209C215.21 379.989 212.312 375.918 207.533 375.135C205.13 374.741 202.657 375.217 200.569 376.476C198.619 377.65 197.23 379.389 196.659 381.369C195.442 385.59 198.339 389.661 203.118 390.444ZM201.09 382.095C201.441 380.879 202.261 379.831 203.4 379.145C204.19 378.669 205.057 378.421 205.9 378.421C206.125 378.421 206.35 378.438 206.57 378.474C208.866 378.85 210.236 381.145 209.561 383.483C209.211 384.699 208.39 385.747 207.251 386.433C206.251 387.036 205.126 387.274 204.082 387.103C201.786 386.728 200.416 384.434 201.09 382.095Z" fill="#393939"/>
<path d="M212.973 404.117C211.888 401.152 209.542 398.537 206.295 396.674C203.049 394.81 199.081 393.801 195 393.801C190.919 393.801 186.951 394.81 183.705 396.674C180.458 398.537 178.112 401.152 177.027 404.117L174.441 411.183C173.977 412.451 173.908 413.784 174.239 415.076C174.57 416.368 175.293 417.585 176.35 418.632C177.408 419.679 178.773 420.528 180.337 421.112C181.902 421.696 183.624 422 185.37 422H204.63C206.376 422 208.098 421.696 209.663 421.112C211.227 420.528 212.592 419.679 213.65 418.632C214.707 417.585 215.43 416.368 215.761 415.076C216.092 413.784 216.023 412.451 215.559 411.183L212.973 404.117ZM210.042 416.561C209.41 417.191 208.592 417.702 207.653 418.053C206.713 418.404 205.678 418.585 204.63 418.582H185.37C184.322 418.582 183.289 418.4 182.35 418.049C181.411 417.699 180.593 417.189 179.958 416.561C179.323 415.933 178.89 415.203 178.691 414.427C178.492 413.652 178.534 412.853 178.813 412.091L181.399 405.026C182.22 402.782 183.995 400.803 186.452 399.393C188.909 397.983 191.912 397.219 195 397.219C198.088 397.219 201.091 397.983 203.548 399.393C206.005 400.803 207.78 402.782 208.601 405.026L211.187 412.091C211.47 412.852 211.514 413.652 211.315 414.428C211.116 415.204 210.68 415.934 210.042 416.561ZM179.426 396.184C179.82 394.326 179.297 392.336 177.952 390.581C176.607 388.825 174.582 387.489 172.25 386.817C169.752 386.098 167.205 386.212 165.074 387.139C160.839 388.982 159.724 393.525 162.59 397.266C163.935 399.021 165.96 400.358 168.292 401.029C169.325 401.333 170.423 401.491 171.532 401.496C172.913 401.5 174.271 401.228 175.468 400.707C177.597 399.78 179.003 398.174 179.426 396.184ZM174.948 395.644C174.745 396.598 174.124 397.345 173.2 397.747C172.275 398.149 171.107 398.181 169.91 397.836C168.547 397.444 167.343 396.634 166.517 395.557C164.93 393.484 165.307 390.985 167.342 390.099C167.853 389.881 168.432 389.768 169.021 389.773C169.572 389.777 170.118 389.857 170.632 390.009C171.994 390.402 173.199 391.211 174.024 392.289C174.85 393.367 175.178 394.559 174.948 395.644ZM179.917 389.103C181.527 390.074 183.366 390.579 185.225 390.579C185.782 390.579 186.337 390.533 186.882 390.444C191.661 389.661 194.558 385.59 193.341 381.369C192.77 379.388 191.381 377.65 189.431 376.475C187.343 375.217 184.87 374.741 182.467 375.135C177.688 375.918 174.79 379.989 176.007 384.209C176.579 386.19 177.967 387.928 179.917 389.103ZM183.43 378.475C183.65 378.439 183.875 378.421 184.1 378.421C184.943 378.421 185.81 378.67 186.6 379.146C187.739 379.832 188.559 380.88 188.91 382.096C189.584 384.435 188.214 386.728 185.918 387.104C184.875 387.275 183.75 387.037 182.749 386.434C181.61 385.748 180.789 384.7 180.439 383.484C179.764 381.145 181.134 378.851 183.43 378.475ZM224.926 387.139C222.796 386.212 220.247 386.098 217.75 386.817C215.418 387.488 213.393 388.825 212.048 390.581C210.704 392.336 210.18 394.326 210.575 396.184C210.997 398.174 212.403 399.78 214.533 400.707C215.729 401.228 217.087 401.5 218.468 401.496C219.577 401.491 220.675 401.333 221.708 401.029C224.04 400.358 226.065 399.021 227.41 397.266C230.276 393.525 229.161 388.982 224.926 387.139ZM223.483 395.557C222.657 396.634 221.453 397.444 220.09 397.836C218.893 398.181 217.725 398.149 216.8 397.747C215.876 397.344 215.256 396.598 215.053 395.644C214.822 394.559 215.15 393.367 215.976 392.29C216.801 391.213 218.006 390.403 219.368 390.01C219.882 389.858 220.428 389.778 220.979 389.773C221.567 389.768 222.147 389.881 222.658 390.1C224.693 390.985 225.071 393.484 223.483 395.557ZM203.118 390.444C203.662 390.533 204.218 390.579 204.775 390.579C206.634 390.579 208.473 390.074 210.083 389.103C212.033 387.928 213.421 386.19 213.993 384.209C215.21 379.989 212.312 375.918 207.533 375.135C205.13 374.741 202.657 375.217 200.569 376.476C198.619 377.65 197.23 379.389 196.659 381.369C195.442 385.59 198.339 389.661 203.118 390.444ZM201.09 382.095C201.441 380.879 202.261 379.831 203.4 379.145C204.19 378.669 205.057 378.421 205.9 378.421C206.125 378.421 206.35 378.438 206.57 378.474C208.866 378.85 210.236 381.145 209.561 383.483C209.211 384.699 208.39 385.747 207.251 386.433C206.251 387.036 205.126 387.274 204.082 387.103C201.786 386.728 200.416 384.434 201.09 382.095Z" stroke="black"/>
</g>
</g>
<defs>
<filter id="filter0_d_101_173" x="42.7639" y="56.7638" width="583" height="583" filterUnits="userSpaceOnUse" color-interpolation-filters="sRGB">
<feFlood flood-opacity="0" result="BackgroundImageFix"/>
<feColorMatrix in="SourceAlpha" type="matrix" values="0 0 0 0 0 0 0 0 0 0 0 0 0 0 0 0 0 0 127 0" result="hardAlpha"/>
<feOffset dy="4"/>
<feGaussianBlur stdDeviation="50"/>
<feComposite in2="hardAlpha" operator="out"/>
<feColorMatrix type="matrix" values="0 0 0 0 0 0 0 0 0 0 0 0 0 0 0 0 0 0 0.25 0"/>
<feBlend mode="normal" in2="BackgroundImageFix" result="effect1_dropShadow_101_173"/>
<feBlend mode="normal" in="SourceGraphic" in2="effect1_dropShadow_101_173" result="shape"/>
</filter>
<filter id="filter1_f_101_173" x="11" y="302" width="35" height="35" filterUnits="userSpaceOnUse" color-interpolation-filters="sRGB">
<feFlood flood-opacity="0" result="BackgroundImageFix"/>
<feBlend mode="normal" in="SourceGraphic" in2="BackgroundImageFix" result="shape"/>
<feGaussianBlur stdDeviation="2" result="effect1_foregroundBlur_101_173"/>
</filter>
<filter id="filter2_f_101_173" x="61" y="280" width="28" height="28" filterUnits="userSpaceOnUse" color-interpolation-filters="sRGB">
<feFlood flood-opacity="0" result="BackgroundImageFix"/>
<feBlend mode="normal" in="SourceGraphic" in2="BackgroundImageFix" result="shape"/>
<feGaussianBlur stdDeviation="2" result="effect1_foregroundBlur_101_173"/>
</filter>
<filter id="filter3_f_101_173" x="24" y="355" width="28" height="28" filterUnits="userSpaceOnUse" color-interpolation-filters="sRGB">
<feFlood flood-opacity="0" result="BackgroundImageFix"/>
<feBlend mode="normal" in="SourceGraphic" in2="BackgroundImageFix" result="shape"/>
<feGaussianBlur stdDeviation="2" result="effect1_foregroundBlur_101_173"/>
</filter>
<filter id="filter4_d_101_173" x="-178.236" y="439.764" width="583" height="583" filterUnits="userSpaceOnUse" color-interpolation-filters="sRGB">
<feFlood flood-opacity="0" result="BackgroundImageFix"/>
<feColorMatrix in="SourceAlpha" type="matrix" values="0 0 0 0 0 0 0 0 0 0 0 0 0 0 0 0 0 0 127 0" result="hardAlpha"/>
<feOffset dy="4"/>
<feGaussianBlur stdDeviation="50"/>
<feComposite in2="hardAlpha" operator="out"/>
<feColorMatrix type="matrix" values="0 0 0 0 0 0 0 0 0 0 0 0 0 0 0 0 0 0 0.25 0"/>
<feBlend mode="normal" in2="BackgroundImageFix" result="effect1_dropShadow_101_173"/>
<feBlend mode="normal" in="SourceGraphic" in2="effect1_dropShadow_101_173" result="shape"/>
</filter>
<filter id="filter5_d_101_173" x="-151.236" y="-162.236" width="583" height="583" filterUnits="userSpaceOnUse" color-interpolation-filters="sRGB">
<feFlood flood-opacity="0" result="BackgroundImageFix"/>
<feColorMatrix in="SourceAlpha" type="matrix" values="0 0 0 0 0 0 0 0 0 0 0 0 0 0 0 0 0 0 127 0" result="hardAlpha"/>
<feOffset dy="4"/>
<feGaussianBlur stdDeviation="50"/>
<feComposite in2="hardAlpha" operator="out"/>
<feColorMatrix type="matrix" values="0 0 0 0 0 0 0 0 0 0 0 0 0 0 0 0 0 0 0.25 0"/>
<feBlend mode="normal" in2="BackgroundImageFix" result="effect1_dropShadow_101_173"/>
<feBlend mode="normal" in="SourceGraphic" in2="effect1_dropShadow_101_173" result="shape"/>
</filter>
<filter id="filter6_d_101_173" x="156.5" y="374.5" width="77.0002" height="56" filterUnits="userSpaceOnUse" color-interpolation-filters="sRGB">
<feFlood flood-opacity="0" result="BackgroundImageFix"/>
<feColorMatrix in="SourceAlpha" type="matrix" values="0 0 0 0 0 0 0 0 0 0 0 0 0 0 0 0 0 0 127 0" result="hardAlpha"/>
<feOffset dy="4"/>
<feGaussianBlur stdDeviation="2"/>
<feComposite in2="hardAlpha" operator="out"/>
<feColorMatrix type="matrix" values="0 0 0 0 0 0 0 0 0 0 0 0 0 0 0 0 0 0 0.25 0"/>
<feBlend mode="normal" in2="BackgroundImageFix" result="effect1_dropShadow_101_173"/>
<feBlend mode="normal" in="SourceGraphic" in2="effect1_dropShadow_101_173" result="shape"/>
</filter>
<linearGradient id="paint0_linear_101_173" x1="334.264" y1="152.764" x2="408.335" y2="535.764" gradientUnits="userSpaceOnUse">
<stop stop-color="#BCF9FF"/>
<stop offset="1" stop-color="#82EFFF" stop-opacity="0"/>
</linearGradient>
<linearGradient id="paint1_linear_101_173" x1="113.264" y1="535.764" x2="187.335" y2="918.764" gradientUnits="userSpaceOnUse">
<stop stop-color="#BCF9FF"/>
<stop offset="1" stop-color="#82EFFF" stop-opacity="0"/>
</linearGradient>
<linearGradient id="paint2_linear_101_173" x1="140.264" y1="-66.236" x2="214.335" y2="316.764" gradientUnits="userSpaceOnUse">
<stop stop-color="#BCF9FF"/>
<stop offset="1" stop-color="#82EFFF" stop-opacity="0"/>
</linearGradient>
<clipPath id="clip0_101_173">
<rect width="390" height="844" fill="white"/>
</clipPath>
</defs>
</svg>
